<mxfile host="app.diagrams.net" modified="2023-07-08T19:18:22.680Z" agent="Mozilla/5.0 (Windows NT 10.0; Win64; x64) AppleWebKit/537.36 (KHTML, like Gecko) Chrome/114.0.0.0 Safari/537.36" version="21.6.1" etag="boaV3vM3stkPwChxP9TD" type="github">
  <diagram name="Page-1" id="-HXa9JJa7kz0LrvLHR7L">
    <mxGraphModel>
      <root>
        <mxCell id="0" />
        <mxCell id="1" parent="0" />
      </root>
    </mxGraphModel>
  </diagram>
</mxfile>
